<?xml version="1.0" encoding="utf-8"?>
<!-- Generator: Adobe Illustrator 26.2.1, SVG Export Plug-In . SVG Version: 6.00 Build 0)  -->
<svg version="1.1" id="Capa_1" xmlns="http://www.w3.org/2000/svg" xmlns:xlink="http://www.w3.org/1999/xlink" x="0px" y="0px"
	 viewBox="0 0 80 80" style="enable-background:new 0 0 80 80;" xml:space="preserve">
<path d="M18.9,65c-2.4,0-4.5-2.1-4.5-4.5c0-2.6,2.1-4.5,4.5-4.5c1,0,1.9,0.3,2.6,0.8V56h2.1v8.7h-1.9v-0.5
	C20.8,64.7,19.8,65,18.9,65 M16.5,60.4c0,1.3,1.1,2.4,2.4,2.4c1.4,0,2.6-1.1,2.6-2.4c0-1.4-1.1-2.6-2.6-2.6
	C17.6,57.9,16.5,59.1,16.5,60.4 M29,65c-2.4,0-4.5-2.1-4.5-4.5c0-2.6,2.1-4.5,4.5-4.5c1,0,1.8,0.3,2.6,0.8v-3.7h2.1v11.7h-2.2v-0.5
	C30.7,64.7,29.9,65,29,65 M26.4,60.4c0,1.3,1.1,2.4,2.6,2.4c1.3,0,2.4-1.1,2.4-2.4c0-1.4-1.1-2.6-2.4-2.6
	C27.5,57.9,26.4,59.1,26.4,60.4 M36.8,64.7h-2.1V56h2.1V64.7z M34.7,53h2.1v2.2h-2.1V53z M44.8,53h2.1v11.7h-2.1v-0.5
	c-0.6,0.5-1.6,0.8-2.6,0.8c-2.6,0-4.5-2.1-4.5-4.5c0-2.6,2.1-4.5,4.5-4.5c1,0,1.8,0.3,2.6,0.8V53z M39.9,60.4c0,1.3,1.1,2.4,2.4,2.4
	c1.4,0,2.6-1.1,2.6-2.4c0-1.4-1.1-2.6-2.6-2.6C41,57.9,39.9,59.1,39.9,60.4 M52.2,65c-2.4,0-4.5-2.1-4.5-4.5c0-2.6,2.1-4.5,4.5-4.5
	c1,0,1.8,0.3,2.6,0.8V56H57v8.7h-2.2v-0.5C54.1,64.7,53.2,65,52.2,65 M49.8,60.4c0,1.3,1.1,2.4,2.6,2.4c1.3,0,2.4-1.1,2.4-2.4
	c0-1.4-1.1-2.6-2.4-2.6C50.9,57.9,49.8,59.1,49.8,60.4 M61.6,65c2.1,0,3.8-0.8,3.8-3c0-1.3-0.8-2.1-2.2-2.4
	c-1.4-0.3-3.2-0.3-3.2-1.3c0.2-0.6,0.6-0.8,1.4-0.8c1.3,0,1.4,0.6,1.4,1.1h2.2c-0.2-1.6-1.4-2.9-3.7-2.9c-2.2,0-3.5,1.3-3.5,2.7
	c0,1,0.5,1.8,1.3,2.1c0.5,0.3,1.3,0.5,2.2,0.6c1,0.2,1.8,0.2,1.9,0.8c0,0.5-0.5,1-1.4,1c-1.4,0-1.8-0.8-1.8-1.4H58
	C57.8,63.7,59.2,65,61.6,65 M46.6,36.3c0.2-1.1,0.2-2.2,0.2-3.5c0-7.1-3.2-14.4-6.7-17.8c-3.5,3.4-6.7,10.6-6.7,17.8
	c0,1.3,0,2.4,0.2,3.5H46.6z M32.5,36.3c-0.5-1-1.3-1.8-2.1-2.7c-4.3-5.1-11.1-8.2-15.7-8.5c-0.3,3.2,0.8,7.2,2.7,11.2H32.5z
	 M40.2,50.6c1.1-1.1,2.2-2.6,3.2-4.5H37C37.9,48,39.1,49.6,40.2,50.6 M36.5,50.4c0-1.1,0-2.6-0.2-4.3H26.1
	C29.8,48.8,33.6,50.1,36.5,50.4 M65.7,25.1C61,25.4,54.3,28.5,50,33.6c-0.8,1-1.4,1.8-2.1,2.7h14.9C64.9,32.3,66,28.3,65.7,25.1
	 M54.1,46.1H43.9c-0.3,1.6-0.3,3.2-0.3,4.3C46.6,50.1,50.6,48.8,54.1,46.1 M58.8,42.4H21.4c0.6,0.6,1.3,1.4,1.9,1.8h33.3
	C57.5,43.7,58.3,43,58.8,42.4 M61.8,38.2c-0.3,0.6-0.8,1.4-1.4,1.9H19.8c-0.3-0.5-1-1.3-1.3-1.9C18.5,38.2,61.8,38.2,61.8,38.2z"/>
</svg>
