<?xml version="1.0" encoding="utf-8"?>
<!-- Generator: Adobe Illustrator 26.2.1, SVG Export Plug-In . SVG Version: 6.00 Build 0)  -->
<svg version="1.1" id="Capa_1" xmlns="http://www.w3.org/2000/svg" xmlns:xlink="http://www.w3.org/1999/xlink" x="0px" y="0px"
	 viewBox="0 0 80 80" style="enable-background:new 0 0 80 80;" xml:space="preserve">
<path d="M27.4,45.7c-0.4,0.6-0.9,1.2-1.6,1.6c-0.2,0.1-0.4,0.2-0.6,0.2c-0.3,0-0.5,0-0.8,0.1c-0.2,0-0.4,0.1-0.6,0.3l-0.1,0.2
	c0,0,0,0.1,0,0.1c0,0,0,0,0.1,0.1c0,0,0.1,0,0.2,0c0.2,0,0.4,0,0.6,0s0.4,0,0.6,0c0.1,0,0.1,0,0.2,0.1l0,0c0,0,0,0.1,0,0.1
	c0,0.1,0,0.2,0.1,0.2c0.1,0.1,0.2,0.2,0.4,0.2l1.2,0.4c0.2,0.1,0.3,0.2,0.5,0.3c0.2-0.3,0.4-0.5,0.7-0.6c0.3-0.1,0.6-0.1,0.9,0
	c0.4,0.1,0.8,0.2,1.2,0.2V49v-0.3v-0.3v-0.2c-0.1,0.1-0.3,0-0.4-0.1c-0.1-0.1-0.2-0.2-0.3-0.4c-0.1-0.3-0.2-0.7-0.1-1
	c0-0.2,0.1-0.4,0.2-0.6C29.8,46,30,46,30.2,46v-0.2v-0.3v-0.3V45l0.2-0.2h0.3h0.2c0.4-0.4,0.9-0.8,1.3-1.2c0.5-0.4,0.9-0.8,1.2-1.3
	c-0.1-0.1-0.1-0.2-0.1-0.3c0.1-0.4,0.2-0.7,0.4-0.9c0.1-0.2,0.3-0.4,0.5-0.5c0.1,0,0.1-0.1,0.2-0.1c0.1,0,0.2,0,0.3,0.1
	c0.5,0.5,0.9,1.2,1.2,1.9c0.2,0.6,0.4,1.2,0.5,1.8c0,0.1,0,0.2-0.1,0.2c-0.1,0.1-0.2,0.2-0.3,0.3l-0.7,0.4c-0.1,0.1-0.2,0.2-0.3,0.3
	c-0.1,0-0.1,0.1-0.1,0.2c0,0.5-0.1,1-0.2,1.5c-0.1,0.3-0.2,0.6-0.4,0.9c-0.2,0.2-0.5,0.3-0.8,0.3c-0.7,1-1.7,1.8-2.8,2.2
	c-0.2,0.6-0.5,1.1-0.9,1.5c-0.9,0.9-2,1.6-3.1,2.1c-2.5,1.1-4.7,2.7-6.5,4.8c-0.4,0.4-0.8,0.8-1.2,1.1c-0.2,0.1-0.4,0.2-0.6,0.2
	c0,0-0.1,0-0.1,0c0,0-0.1-0.1-0.2-0.1c-0.1-0.1-0.2-0.3-0.3-0.4c-0.1-0.1-0.1-0.1-0.1-0.2c0,0-0.1,0-0.1,0c0,0,0,0,0,0l0,0
	c-0.1,0.8-0.4,1.4-0.8,2c-0.3,0.3-0.6,0.4-0.9,0.5l-1.6,0.2c-0.3,0.1-0.6,0.2-0.9,0.3c-0.3,0.2-0.5,0.5-0.5,0.9
	c0,0.7,0.5,1.3,1.1,1.5c0.7,0.3,1.5,0.4,2.2,0.2c0.9-0.2,1.7-0.5,2.4-0.9c0.4-0.3,0.7-0.6,0.9-0.9c0.7-1,1.8-1.7,3-2
	c0.4-0.2,0.8-0.4,1.2-0.7c0.6-0.5,1.2-1,1.8-1.4c0.2-0.1,0.4-0.2,0.6-0.3c1.5-0.7,2.8-1.5,4.1-2.4c1-0.7,2-1.2,3.1-1.6
	c1.1-0.5,2.1-1.1,3.1-1.7c0.9-0.5,1.9-0.8,2.9-0.7c0.7,0.1,1.3,0.3,1.9,0.6c1.9,0.9,3.9,1.7,5.9,2.2c1.6,0.3,3.1,1,4.3,2
	c1.8,1.5,3.6,2.7,5.7,3.8c1.5,0.8,2.6,2,3.3,3.5c0.1,0.2,0.2,0.3,0.3,0.4c0.2,0.1,0.4,0.2,0.5,0.1c0.3-0.1,0.6-0.2,0.8-0.4
	c0.6-0.5,1.2-0.9,1.8-1.3c0.8-0.5,1.6-1,2.3-1.6c0.3-0.3,0.5-0.5,0.7-0.8c0.1-0.1,0.2-0.2,0.2-0.4c0.1-0.1,0.1-0.2,0-0.3
	S67,60,66.9,60c-0.1-0.1-0.3-0.1-0.5-0.1c-0.6,0-1.2,0.2-1.8,0.5c-0.1,0-0.2,0.1-0.3,0.2s-0.2,0.1-0.3,0.2c-0.4,0.1-0.8,0.1-1.2,0
	c-0.2,0-0.3-0.1-0.4-0.2c-0.1-0.1-0.1-0.1-0.2-0.2c0-0.1,0-0.1,0-0.2c0-0.2,0.1-0.4,0.1-0.6c0,0,0-0.1,0-0.1c0,0,0,0,0-0.1
	c0,0,0,0-0.1,0h-0.1c0,0-0.1,0.1-0.1,0.1c-0.1,0-0.1,0.1-0.2,0.1c-0.3,0.2-0.6,0.4-0.9,0.4c-0.3,0-0.7-0.1-0.9-0.3
	c-0.1,0-0.1-0.1-0.2-0.2c-0.3-0.5-0.7-1-1.1-1.3l-3.7-3.1c-0.8-0.5-1.6-1.1-2.3-1.6c-0.2-0.2-0.4-0.4-0.6-0.5
	c-0.4-0.3-0.9-0.4-1.3-0.6c-0.3-0.1-0.6-0.3-0.8-0.5c-0.3-0.3-0.4-0.7-0.4-1.1c-0.4-0.1-0.8-0.3-1.1-0.5c-1.1-0.6-2.1-1.2-3.1-1.9
	c-0.1-0.1-0.2-0.1-0.2-0.2c-0.1-0.2-0.2-0.5-0.2-0.7c-0.1-0.3-0.1-0.5-0.3-0.7c-0.1-0.2-0.3-0.3-0.4-0.3l-0.3-0.1
	c-0.3-0.1-0.5-0.3-0.6-0.6c-0.1-0.3-0.2-0.6-0.1-0.9c0.1-0.6,0.2-1.2,0.3-1.8c0.3-1.9-0.1-3.9-1-5.6c-0.1-0.2-0.2-0.5-0.3-0.8
	c-0.1-0.8,0-1.6,0.2-2.3c0.3-1,0.6-2.1,0.7-3.1c0.1-1.1,0.4-2.2,0.9-3.2c0.2-0.3,0.3-0.6,0.4-0.9c0.2-1,0.4-1.9,0.4-2.9
	c0-1.1,0.2-2.1,0.5-3.1c0-0.1,0.1-0.2,0.2-0.3c0.2-0.1,0.4-0.2,0.6-0.3c0.3-0.1,0.7-0.2,0.9-0.4c0.7-0.5,1.1-1.3,1.1-2.1
	c0-0.9-0.4-1.7-1-2.2c-0.9-0.9-2.2-1.2-3.4-0.6c-1.1,0.7-1.6,2-1.4,3.2c0.2,0.6,0.4,1.2,0.7,1.8c0.3,0.5,0.4,1.1,0.3,1.7
	c-0.1,1-0.4,2-0.8,3c-0.3,0.7-0.6,1.4-0.7,2.2c-0.2,1-0.4,2-0.7,2.9c-0.2,0.6-0.6,1.1-1.1,1.4c-0.2,0.1-0.4,0.1-0.6,0
	c-0.2-0.1-0.4-0.2-0.5-0.4l-1-1c-0.3-0.3-0.7-0.4-1.1-0.4c-1,0.1-1.9,0.6-2.5,1.5c-0.3,0.4-0.4,0.9-0.2,1.4c0.2,0.4,0.4,0.8,0.6,1.2
	c0.2,0.3,0.3,0.6,0.3,1c0,0.2,0,0.3-0.1,0.5c-0.1,0.2-0.3,0.3-0.4,0.3c-0.3,0.1-0.6,0.1-0.9,0.1c-0.8,1.2-1.6,2.4-2.2,3.6
	c-0.4,0.6-0.8,1.2-1.2,1.7c-0.7,1-1.3,2.1-1.9,3.1C28.3,44.8,27.9,45.3,27.4,45.7L27.4,45.7z"/>
</svg>
