<svg width="80" height="80" viewBox="0 0 32 32" fill="none" xmlns="http://www.w3.org/2000/svg">
  <polygon fill="currentColor" points="9.8,16.3 7.6,16.3 7.8,12.5 6.4,16.3 4.3,16.3 7.6,7.7 9.8,7.7 9.5,11.6 11,7.7 13,7.7 		"/>
            <polygon fill="currentColor" points="10,16.3 13.3,7.7 15.3,7.7 12.1,16.3 		"/>
            <path fill="currentColor" d="M31.8,12.9c0,0-4.3,1.2-9.1,2.5l0.2-0.7h-2.4l0.8-2.1h2l0.6-1.6h-2l0.7-1.8h2.1l0.6-1.4h-6.3l-2.1,2.6l1-2.6
                h-2.1l-3.2,8.7h2.1l1.4-3.6l0.1,3.6l3,0c-5.6,1.5-10.9,3-10.9,3c-3,0.8-6.4-1-3.9-5.9c-2.9,3.4-5.6,7.8-3.2,9.9
                c2.3,2,5.2,0.8,7.2,0c2-0.8,23.8-10.3,23.8-10.3C32.1,12.9,32,12.8,31.8,12.9z M18,15.8l-0.1-4.5L21,7.8L18,15.8z"/>
            <path fill="currentColor" d="M26,7.6c-0.3,0-0.5,0.2-0.5,0.4c0,0.3,0.2,0.4,0.5,0.4c0.3,0,0.5-0.2,0.5-0.4C26.4,7.8,26.2,7.6,26,7.6L26,7.6
                z M26,8.4c-0.2,0-0.3-0.1-0.3-0.3c0-0.2,0.1-0.3,0.3-0.3c0.2,0,0.3,0.1,0.3,0.3C26.3,8.3,26.2,8.4,26,8.4L26,8.4z"/>
            <path fill="currentColor" d="M26.1,8.1c0.1,0,0.1,0,0.1-0.1c0-0.1-0.1-0.1-0.2-0.1h-0.2v0.5h0.1V8.1h0L26,8.3h0.1L26.1,8.1z M26,8L26,8
                l-0.1-0.1H26C26,7.9,26,7.9,26,8C26,8,26,8,26,8L26,8z"/>
</svg>