<svg width="80" height="80" viewBox="0 0 32 32" fill="none" xmlns="http://www.w3.org/2000/svg">
<path fill="currentColor" d="M17.2,8.1c-0.1,0-0.2,0.4-0.4,0.6c-0.1,0.1-0.3,0.1-0.4,0.3c0,0.1,0,0.2-0.1,0.3C16.3,9.5,16,9.5,16,9.8
            c0,0.3,0.2,0.3,0.5,0.5c0.2,0.1,0.2,0.2,0.4,0.3c0.2,0.1,0.4-0.1,0.7-0.1c0.2,0.1,0.4,0.1,0.4,0.3c0,0.2,0,0.5-0.2,0.4
            c-0.1,0-0.4-0.1-0.8-0.1c-0.5,0.1-1.1,0.2-1.1,0.8c0,0.3,0.3,0.7,0.7,0.6c0.3-0.1,0.1-0.3,0.3-0.5c0.2-0.2,1.2,0.6,2.2,0.6
            c0.4,0,0.7-0.1,1-0.4c0,0,0.1-0.1,0.1-0.1c0,0,0.1,0,0.1,0.1c0.8,0.6,1.3,1.9,4.2,1.9c0.4,0,0.8,0.2,1.2,0.5
            c0.3,0.3,0.5,0.8,0.7,1.3c0.3,0.7,0.8,1.4,1.6,2.2c0,0,0.7,0.5,0.7,0.6c0,0,0.1,0.1,0,0.2c0,0.5-0.1,1.8,0.9,1.9
            c0.2,0,0.2-0.2,0.2-0.3c0-0.2,0-0.5,0.1-0.7c0.2-0.3-0.4-0.5-0.3-1.2c0-0.5-0.4-0.4-0.7-0.9c-0.1-0.2-0.2-0.4-0.2-0.7
            c0.1-1.6-0.3-2.7-0.5-3c-0.2-0.2-0.3-0.3-0.1-0.4c0.8-0.6,1-1.1,1-1.1c0.4-1.1,0.9-2,1.4-2.4c0.1-0.1,0.4-0.3,0.6-0.4
            c0.5-0.2,0.8-0.4,0.9-0.5c0.2-0.2,0.4-0.7,0.2-1c-0.3-0.4-0.8-0.1-1,0.1c-1.6,0.9-1.8,2.5-2.3,3.5c-0.4,0.7-1.1,1.3-1.8,1.3
            c-0.5,0-1-0.1-1.5-0.3c-1.2-0.5-1.9-1.2-2-1.3c-0.3-0.3-2.9-2.8-4.9-2.9c0,0-0.3-0.5-0.3-0.5c-0.2,0-0.3,0.3-0.4,0.3
            C17.5,8.5,17.4,8.1,17.2,8.1"/>
        <path fill="currentColor" d="M8.2,23c-0.2,0-0.4-0.2-0.4-0.4l0-6.4H5.7v7.1c0,0.3,0.3,0.6,0.6,0.6H10c0.3,0,0.6-0.3,0.6-0.6v-7.1H8.5l0,6.4
            C8.5,22.8,8.4,23,8.2,23"/>
        <path fill="currentColor" d="M15.3,16.2h-3.2c-0.4,0-0.7,0.3-0.7,0.7v7h2.1v-6.5c0-0.2,0.2-0.4,0.4-0.4c0.2,0,0.4,0.2,0.4,0.3v6.5h2.1v-6.5
            c0-0.2,0.2-0.3,0.4-0.3c0.2,0,0.4,0.2,0.4,0.4v6.5h2.1v-7c0-0.4-0.3-0.7-0.7-0.7H15.3z"/>
        <path fill="currentColor" d="M4.3,22H2.1v1.9H0v-7.7h4.3c0.4,0,0.7,0.3,0.7,0.7v4.4C5,21.7,4.6,22,4.3,22 M2.8,17.5c0-0.2-0.2-0.4-0.4-0.4
            H2.1V21h0.4c0.2,0,0.4-0.1,0.4-0.4V17.5z"/>
        <path fill="currentColor" d="M27.4,23c0,0.5-0.4,1-0.9,1c-0.5,0-0.9-0.4-0.9-1c0-0.5,0.4-1,0.9-1C27,22.1,27.4,22.5,27.4,23 M26.4,22.2
            c-0.4,0-0.8,0.4-0.8,0.8c0,0.4,0.4,0.8,0.8,0.8c0.4,0,0.8-0.4,0.8-0.8C27.2,22.6,26.9,22.2,26.4,22.2L26.4,22.2z"/>
        <path fill="currentColor" d="M26.9,23.6h-0.3l-0.3-0.4v0.4h-0.2v-1.1h0.2c0.3,0,0.5,0.1,0.5,0.3c0,0.1-0.1,0.3-0.2,0.3l0,0L26.9,23.6z
             M26.4,23c0.1,0,0.2-0.1,0.2-0.2c0-0.1-0.1-0.1-0.2-0.1h0L26.4,23L26.4,23z"/>
        <path fill="currentColor" d="M22.7,23.9V22H22v1.9h-2.1v-7c0-0.4,0.3-0.7,0.7-0.7h3.6c0.4,0,0.7,0.3,0.7,0.7v7H22.7z M22.7,21v-3.6
            c0-0.2-0.2-0.3-0.4-0.3c-0.2,0-0.4,0.2-0.4,0.4V21H22.7z"/>
</svg>